<svg width="11" height="10" viewBox="0 0 11 10" fill="none" xmlns="http://www.w3.org/2000/svg">
<path d="M5.90815 0.722833L6.79537 2.49727C6.91492 2.74267 7.23583 2.97549 7.5064 3.02583L9.11095 3.2901C10.1366 3.46 10.3757 4.20249 9.6395 4.94498L8.38733 6.19716C8.17968 6.4048 8.06013 6.81381 8.12934 7.10955L8.48801 8.65746C8.77116 9.87817 8.11676 10.3564 7.04077 9.71457L5.5369 8.82106C5.26633 8.65746 4.81329 8.65746 4.54272 8.82106L3.03885 9.71457C1.96286 10.3501 1.30846 9.87817 1.59162 8.65746L1.95028 7.10955C2.00691 6.80751 1.88735 6.39851 1.67971 6.19087L0.427534 4.93869C-0.308668 4.20249 -0.0695593 3.46 0.95609 3.28381L2.56063 3.01953C2.8312 2.97549 3.15211 2.73638 3.27167 2.49098L4.15889 0.716541C4.64339 -0.239893 5.42364 -0.239893 5.90815 0.722833Z" fill="#FEB052"/>
</svg>
