<svg width="36" height="32" viewBox="0 0 36 32" fill="none" xmlns="http://www.w3.org/2000/svg">
<g clip-path="url(#clip0_563_315)">
<path d="M1.30713 17.126H11.5697L14.5665 9.25244L18.4316 22.6779L22.7483 13.3499L25.4803 17.2704H35.4031" stroke="white" stroke-width="1.5" stroke-linecap="round" stroke-linejoin="round"/>
<path d="M33.5721 13.9264C34.3482 12.3471 34.6347 10.897 34.6347 9.60863C34.6347 6.82998 32.6278 1.08057 26.1077 1.08057C19.5877 1.08057 17.9498 6.66934 17.9498 6.66934C17.9498 6.66934 16.3119 1.08599 9.79185 1.08599C3.2718 1.08599 1.26379 6.83866 1.26379 9.61405C1.26379 10.859 1.53189 12.2559 2.25151 13.7744" stroke="white" stroke-width="1.5" stroke-linecap="round" stroke-linejoin="round"/>
<path d="M7.99219 20.9414C11.8997 25.0779 15.9005 29.0169 17.9497 30.9196C19.9968 29.019 23.9955 25.0844 27.8964 20.9523" stroke="white" stroke-width="1.5" stroke-linecap="round" stroke-linejoin="round"/>
</g>
<defs>
<clipPath id="clip0_563_315">
<rect width="35.3333" height="31.0329" fill="white" transform="translate(0.666748 0.483398)"/>
</clipPath>
</defs>
</svg>
