<svg width="28" height="36" viewBox="0 0 28 36" fill="none" xmlns="http://www.w3.org/2000/svg">
<g clip-path="url(#clip0_563_306)">
<path d="M20.6464 1.28418C18.9111 1.28418 16.7144 2.4775 13.9995 2.4775C11.2846 2.4775 9.08796 1.28418 7.35374 1.28418C4.36014 1.28418 -0.285097 3.64293 0.783309 9.76949C1.58126 14.3383 5.26338 16.7498 5.26338 20.372C5.26338 24.1532 3.98232 24.3463 3.84193 28.91C3.69535 33.6409 5.80844 34.7145 6.55272 34.7145C7.29699 34.7145 9.3027 35.019 10.239 29.4251C11.3084 23.025 13.9995 23.3078 13.9995 23.3078C13.9995 23.3078 16.6917 23.0281 17.7612 29.4251C18.6975 35.019 20.7042 34.7145 21.4474 34.7145C22.1907 34.7145 24.3048 33.6409 24.1582 28.91C24.0167 24.3463 22.7367 24.1532 22.7367 20.372C22.7367 16.7498 26.4188 14.3383 27.2168 9.76949C28.2862 3.64293 23.6379 1.28418 20.6464 1.28418Z" stroke="white" stroke-width="1.5" stroke-linecap="round" stroke-linejoin="round"/>
<path d="M8.0391 14.6076C7.81097 14.2256 7.57975 13.8561 7.35265 13.4948C6.45663 12.0671 5.68344 10.8346 5.4264 9.36565C5.20343 8.08873 5.35933 7.1215 5.88992 6.48975" stroke="white" stroke-width="1.5" stroke-linecap="round" stroke-linejoin="round"/>
</g>
<defs>
<clipPath id="clip0_563_306">
<rect width="27.858" height="34.5451" fill="white" transform="translate(0.0709229 0.727539)"/>
</clipPath>
</defs>
</svg>
