<svg width="36" height="36" viewBox="0 0 36 36" fill="none" xmlns="http://www.w3.org/2000/svg">
<g clip-path="url(#clip0_563_351)">
<path d="M7.20878 6.48462L7.40477 5.31238C7.67968 4.17751 8.32787 3.1679 9.24533 2.44556C10.1628 1.72322 11.2963 1.33004 12.464 1.3291C13.3952 1.3291 14.2882 1.699 14.9466 2.35744C15.6051 3.01588 15.975 3.90893 15.975 4.8401V30.5497C15.975 32.7107 13.8027 34.6723 11.6429 34.6723C8.16359 34.6723 5.63113 32.3641 5.63113 28.7194C3.79521 27.3128 2.55957 24.9446 3.13945 22.7054L3.40335 21.6929L3.27422 21.5921C0.266082 19.2431 0.396305 15.4943 3.53242 13.3243" stroke="white" stroke-width="1.5" stroke-linecap="round" stroke-linejoin="round"/>
<path d="M11.3517 8.49737C9.68 6.20956 7.08415 5.76672 4.44864 7.59131C3.11785 8.66499 2.15286 10.7761 3.53234 13.3222C3.53234 13.3222 6.61752 11.7728 8.71053 15.1841" stroke="white" stroke-width="1.5" stroke-linecap="round" stroke-linejoin="round"/>
<path d="M5.62878 28.7194C5.62878 28.7194 6.0297 26.7532 8.9563 26.1733" stroke="white" stroke-width="1.5" stroke-linecap="round" stroke-linejoin="round"/>
<path d="M10.4355 27.7203C10.7617 27.8335 7.88722 26.6692 9.21121 24.1753" stroke="white" stroke-width="1.5" stroke-linecap="round" stroke-linejoin="round"/>
<path d="M15.9727 19.1524C15.9727 19.1524 13.7721 18.0051 11.8625 19.8784" stroke="white" stroke-width="1.5" stroke-linecap="round" stroke-linejoin="round"/>
<path d="M3.40332 21.6929C3.40332 21.6929 4.26519 19.6928 7.31637 20.4992" stroke="white" stroke-width="1.5" stroke-linecap="round" stroke-linejoin="round"/>
<path d="M28.8422 6.35549L28.5953 5.31238C28.3203 4.17751 27.6722 3.1679 26.7547 2.44556C25.8372 1.72322 24.7037 1.33004 23.536 1.3291C22.6049 1.3291 21.7118 1.699 21.0534 2.35744C20.3949 3.01588 20.025 3.90893 20.025 4.84011V30.5497C20.0249 31.0635 20.126 31.5722 20.3225 32.0469C20.519 32.5216 20.8072 32.9529 21.1705 33.3162C21.5338 33.6795 21.9651 33.9676 22.4398 34.1642C22.9145 34.3607 23.4232 34.4618 23.937 34.4617C28.3257 34.4617 29.7879 32.4921 30.7902 29.5621C33.0464 28.2891 33.4416 25.7872 32.8583 23.5481L32.5956 22.5367L32.7247 22.4347C33.4241 21.8885 33.9854 21.1854 34.3632 20.3823C34.741 19.5792 34.9247 18.6986 34.8996 17.8114C34.8745 16.9243 34.6412 16.0554 34.2185 15.275C33.7959 14.4946 33.1957 13.8244 32.4664 13.3186" stroke="white" stroke-width="1.5" stroke-linecap="round" stroke-linejoin="round"/>
<path d="M25.0842 8.7882C26.765 5.84349 29.3801 5.94317 31.5513 7.58768C33.1845 8.8607 33.4767 11.8382 32.4687 13.3185C32.4687 13.3185 27.9565 12.4125 25.5713 14.7682" stroke="white" stroke-width="1.5" stroke-linecap="round" stroke-linejoin="round"/>
<path d="M25.8058 16.7444C25.8058 16.7444 26.5227 14.2278 23.7773 13.9775" stroke="white" stroke-width="1.5" stroke-linecap="round" stroke-linejoin="round"/>
<path d="M30.7926 29.5622C30.7926 29.5622 30.3916 27.596 27.4662 27.0161" stroke="white" stroke-width="1.5" stroke-linecap="round" stroke-linejoin="round"/>
<path d="M25.9904 28.5631C25.6642 28.6763 28.5387 27.512 27.2147 25.0181" stroke="white" stroke-width="1.5" stroke-linecap="round" stroke-linejoin="round"/>
<path d="M32.5979 22.5367C31.495 21.6506 30.0935 21.2227 28.6837 21.3418" stroke="white" stroke-width="1.5" stroke-linecap="round" stroke-linejoin="round"/>
<path d="M20.0273 22.5366C20.9332 22.5071 21.8271 22.7497 22.5938 23.2331" stroke="white" stroke-width="1.5" stroke-linecap="round" stroke-linejoin="round"/>
</g>
<defs>
<clipPath id="clip0_563_351">
<rect width="35.0534" height="34.5902" fill="white" transform="translate(0.473267 0.705078)"/>
</clipPath>
</defs>
</svg>
