<svg width="25" height="34" viewBox="0 0 25 34" fill="none" xmlns="http://www.w3.org/2000/svg">
<path d="M16.5622 10.1216V5.33643H8.7775V10.1216C6.25281 11.0377 4.13179 12.8143 2.78718 15.1392C1.44256 17.4641 0.960396 20.1886 1.42545 22.8338C1.8905 25.4789 3.27301 27.8756 5.32998 29.6024C7.38694 31.3293 9.98675 32.2759 12.6725 32.2759C15.3582 32.2759 17.9581 31.3293 20.015 29.6024C22.072 27.8756 23.4545 25.4789 23.9195 22.8338C24.3846 20.1886 23.9024 17.4641 22.5578 15.1392C21.2132 12.8143 19.0922 11.0377 16.5675 10.1216H16.5622Z" stroke="white" stroke-width="1.5" stroke-linecap="round" stroke-linejoin="round"/>
<path d="M23.6587 23.1126L21.8307 21.635C21.313 21.2166 20.6674 20.9883 20.0017 20.9883C19.336 20.9883 18.6904 21.2166 18.1727 21.635C17.6545 22.053 17.0089 22.2809 16.3431 22.2809C15.6774 22.2809 15.0318 22.053 14.5136 21.635C13.9958 21.2167 13.3502 20.9886 12.6846 20.9886C12.0189 20.9886 11.3734 21.2167 10.8555 21.635C10.3378 22.053 9.69245 22.281 9.02703 22.281C8.36161 22.281 7.71629 22.053 7.19854 21.635C6.68079 21.217 6.03547 20.989 5.37005 20.989C4.70463 20.989 4.05927 21.217 3.54153 21.635L1.70935 23.1126" stroke="white" stroke-width="1.5" stroke-linecap="round" stroke-linejoin="round"/>
<path d="M17.5807 1.72266H7.75269V5.33638H17.5807V1.72266Z" stroke="white" stroke-width="1.5" stroke-linecap="round" stroke-linejoin="round"/>
</svg>
