<svg width="28" height="34" viewBox="0 0 28 34" fill="none" xmlns="http://www.w3.org/2000/svg">
<g clip-path="url(#clip0_563_336)">
<path d="M5.29511 17.2444C2.86696 14.0043 0.703735 10.8967 0.703735 6.49971C0.703735 3.4893 3.23671 2.43627 4.83674 2.07129" stroke="white" stroke-width="1.5" stroke-linecap="round" stroke-linejoin="round"/>
<path d="M7.36789 1.88068C7.36789 2.50582 6.80755 3.01185 6.11474 3.01185C5.50961 3.01185 5.00454 2.62399 4.88733 2.10844C4.87083 2.03364 4.86252 1.95727 4.86255 1.88068C4.86255 1.25554 5.42289 0.749512 6.11474 0.749512C6.80659 0.749512 7.36789 1.25554 7.36789 1.88068Z" stroke="white" stroke-width="1.5" stroke-linecap="round" stroke-linejoin="round"/>
<path d="M16.5011 1.88068C16.5011 2.50582 17.0614 3.01185 17.7533 3.01185C18.3594 3.01185 18.8644 2.62399 18.9817 2.10844C18.9982 2.03364 19.0065 1.95727 19.0064 1.88068C19.0064 1.25554 18.4461 0.749512 17.7533 0.749512C17.0605 0.749512 16.5011 1.25554 16.5011 1.88068Z" stroke="white" stroke-width="1.5" stroke-linecap="round" stroke-linejoin="round"/>
<path d="M18.5737 17.2454C21.0009 14.0054 23.1651 10.8977 23.1651 6.49981C23.1651 3.50179 20.6531 2.44495 19.0521 2.0752" stroke="white" stroke-width="1.5" stroke-linecap="round" stroke-linejoin="round"/>
<path d="M0.703735 6.49971C0.703735 3.4893 3.23671 2.43627 4.83674 2.07129" stroke="white" stroke-width="1.5" stroke-linecap="round" stroke-linejoin="round"/>
<path d="M18.5938 17.2607C18.3197 17.0376 17.9683 16.9323 17.6167 16.9681C17.265 17.0038 16.942 17.1776 16.7184 17.4513C15.27 19.2222 13.6692 20.8628 11.9345 22.3543C10.1996 20.8626 8.59856 19.222 7.14966 17.4513C7.04273 17.3057 6.90733 17.1833 6.75168 17.0915C6.59603 16.9998 6.42337 16.9406 6.24417 16.9176C6.06497 16.8946 5.88296 16.9082 5.70918 16.9577C5.53541 17.0071 5.37348 17.0913 5.23323 17.2052C5.09297 17.3191 4.97732 17.4603 4.89327 17.6202C4.80922 17.7802 4.75853 17.9555 4.74427 18.1356C4.73002 18.3157 4.75249 18.4969 4.81034 18.668C4.86818 18.8392 4.96018 18.9968 5.08077 19.1314C8.02162 22.7526 10.9996 25.0397 11.1254 25.135L11.1416 25.1455C11.192 25.1827 11.2449 25.2165 11.2998 25.2465L11.3122 25.2542C11.432 25.3167 11.5605 25.3611 11.6934 25.3857L11.7325 25.3923C11.7974 25.4025 11.863 25.4079 11.9288 25.4085H11.9335C11.9996 25.408 12.0655 25.4025 12.1308 25.3923L12.1699 25.3857C12.3028 25.3611 12.4313 25.3167 12.5511 25.2542L12.5634 25.2465C12.6184 25.2165 12.6712 25.1827 12.7216 25.1455L12.7378 25.135C14.9618 23.3559 16.9882 21.3431 18.7825 19.1314C19.0043 18.8578 19.109 18.5076 19.0737 18.1571C19.0383 17.8067 18.8658 17.4845 18.5938 17.2607Z" stroke="white" stroke-width="1.5" stroke-linecap="round" stroke-linejoin="round"/>
<path d="M24.0791 27.2447C24.0791 27.2447 23.311 33.2484 18.1707 33.2484C13.4497 33.2484 12.1823 29.6958 11.9764 25.415" stroke="white" stroke-width="1.5" stroke-linecap="round" stroke-linejoin="round"/>
<path d="M27.2981 24.7575C27.2981 26.1145 26.1546 27.2143 24.7337 27.2143C23.3128 27.2143 22.1731 26.1184 22.1731 24.7575C22.1731 23.3967 23.3214 22.3008 24.7375 22.3008C26.1536 22.3008 27.2981 23.4005 27.2981 24.7575Z" stroke="white" stroke-width="1.5" stroke-linecap="round" stroke-linejoin="round"/>
<path d="M25.0701 24.7577C25.073 24.825 25.0556 24.8916 25.0203 24.949C24.985 25.0063 24.9333 25.0518 24.8719 25.0795C24.8105 25.1072 24.7422 25.1159 24.6758 25.1044C24.6095 25.093 24.548 25.062 24.4994 25.0153C24.4508 24.9686 24.4173 24.9085 24.4032 24.8427C24.3891 24.7768 24.3951 24.7082 24.4203 24.6458C24.4455 24.5833 24.4888 24.5298 24.5447 24.4922C24.6005 24.4546 24.6664 24.4345 24.7337 24.4346C24.7771 24.4338 24.8201 24.4414 24.8604 24.4572C24.9008 24.4729 24.9376 24.4965 24.9689 24.5265C25.0001 24.5565 25.0251 24.5923 25.0425 24.632C25.0599 24.6717 25.0693 24.7144 25.0701 24.7577Z" stroke="white" stroke-width="1.5" stroke-linecap="round" stroke-linejoin="round"/>
</g>
<defs>
<clipPath id="clip0_563_336">
<rect width="27.6426" height="33.551" fill="white" transform="translate(0.178711 0.224609)"/>
</clipPath>
</defs>
</svg>
