<svg width="37" height="28" viewBox="0 0 37 28" fill="none" xmlns="http://www.w3.org/2000/svg">
<g clip-path="url(#clip0_563_323)">
<path d="M22.368 19.8669C22.3886 20.9089 22.6417 21.9331 23.109 22.8647C23.5762 23.7964 24.2456 24.6118 25.0684 25.2515C25.9335 25.9258 27.0685 26.5118 28.5502 26.8214C33.8169 27.9376 36.4769 27.6919 36.4715 22.0164C36.4715 18.1125 35.6848 4.04317 26.5636 2.82167C22.7712 2.31309 22.0484 5.3871 22.0871 7.13338L22.368 19.8669Z" stroke="white" stroke-width="1.5" stroke-linecap="round" stroke-linejoin="round"/>
<path d="M14.9651 19.8669C14.9448 20.9085 14.6922 21.9324 14.2258 22.8639C13.7594 23.7955 13.0909 24.6112 12.2692 25.2515C11.4032 25.9258 10.269 26.5118 8.7874 26.8214C3.51974 27.9376 0.859799 27.6919 0.8661 22.0164C0.8661 18.1125 1.65283 4.04317 10.774 2.82167C14.5663 2.31309 15.2892 5.3871 15.2505 7.13338L14.9651 19.8669Z" stroke="white" stroke-width="1.5" stroke-linecap="round" stroke-linejoin="round"/>
<path d="M19.7629 0.651367V7.32146C19.7629 8.45475 20.4372 9.51693 21.5632 10.1623L21.9899 10.4063" stroke="white" stroke-width="1.5" stroke-linecap="round" stroke-linejoin="round"/>
<path d="M17.5702 0.651367V7.32146C17.5702 8.45475 16.896 9.51693 15.7699 10.1623L15.3433 10.4063" stroke="white" stroke-width="1.5" stroke-linecap="round" stroke-linejoin="round"/>
<path d="M18.6665 11.3179C17.4252 12.4323 15.3108 13.0471 15.3108 13.0471" stroke="white" stroke-width="1.5" stroke-linecap="round" stroke-linejoin="round"/>
<path d="M18.6665 11.3179C19.9069 12.4323 22.0214 13.0471 22.0214 13.0471" stroke="white" stroke-width="1.5" stroke-linecap="round" stroke-linejoin="round"/>
</g>
<defs>
<clipPath id="clip0_563_323">
<rect width="36.6" height="27.6894" fill="white" transform="translate(0.366577 0.155273)"/>
</clipPath>
</defs>
</svg>
