<svg width="32" height="30" viewBox="0 0 32 30" fill="none" xmlns="http://www.w3.org/2000/svg">
<g clip-path="url(#clip0_563_370)">
<path d="M5.99594 28.9615C5.21048 29.1854 4.38512 29.0705 3.87414 28.6403C3.00888 27.9113 2.19618 26.7755 1.71245 25.0829C1.04866 22.7645 1.875 18.1161 5.75553 17.0045C8.67543 16.1704 9.86674 18.1861 12.8032 17.3462C15.7396 16.5062 17.3222 14.6054 16.7937 12.7658C15.8574 9.49459 10.4673 8.63516 7.99802 4.95999C7.34688 3.98669 7.93864 3.30539 9.38107 2.88784C10.3612 2.60753 11.3481 2.15494 12.0829 2.81873C12.8178 3.48252 13.6266 4.24267 14.9308 5.06316C14.9308 5.06316 16.7801 2.00117 19.7146 1.16121C22.6491 0.321258 28.6494 1.46001 30.8102 9.01572C32.9709 16.5714 24.5528 22.4394 19.5199 23.8799C10.9782 26.3229 9.55139 21.3328 7.25635 21.9898C5.47911 22.4978 6.12538 24.5836 7.5026 26.1574C8.30946 27.0792 7.6301 28.4934 6.13998 28.9167L5.99594 28.9615Z" stroke="white" stroke-width="1.5" stroke-linecap="round" stroke-linejoin="round"/>
</g>
<defs>
<clipPath id="clip0_563_370">
<rect width="30.7796" height="29.27" fill="white" transform="translate(0.943604 0.365234)"/>
</clipPath>
</defs>
</svg>
