<svg width="15" height="15" viewBox="0 0 15 15" fill="none" xmlns="http://www.w3.org/2000/svg">
<path d="M7.09964 2.79722L7.5 3.33235L7.90036 2.79722C8.56792 1.90493 9.63741 1.3252 10.83 1.3252C12.854 1.3252 14.5 2.974 14.5 5.01769C14.5 5.85582 14.3664 6.62894 14.1343 7.34628L14.1332 7.34954C13.5765 9.11124 12.4341 10.5355 11.195 11.6004C9.95375 12.6672 8.64415 13.3485 7.80394 13.6343L7.80393 13.6343L7.79859 13.6362C7.74125 13.6564 7.633 13.6752 7.5 13.6752C7.367 13.6752 7.25875 13.6564 7.20141 13.6362L7.20142 13.6362L7.19606 13.6343C6.35584 13.3485 5.04625 12.6672 3.80496 11.6004C2.56587 10.5355 1.42346 9.11124 0.866762 7.34954L0.866774 7.34953L0.865722 7.34628C0.633641 6.62894 0.5 5.85582 0.5 5.01769C0.5 2.974 2.14598 1.3252 4.17 1.3252C5.3626 1.3252 6.43208 1.90493 7.09964 2.79722Z" stroke="#1F2A37"/>
</svg>
