<svg width="16" height="16" viewBox="0 0 16 16" fill="none" xmlns="http://www.w3.org/2000/svg">
<path d="M14.6667 14.1665H1.33337C1.06004 14.1665 0.833374 14.3932 0.833374 14.6665C0.833374 14.9398 1.06004 15.1665 1.33337 15.1665H14.6667C14.94 15.1665 15.1667 14.9398 15.1667 14.6665C15.1667 14.3932 14.94 14.1665 14.6667 14.1665Z" fill="#9CA3AF"/>
<path d="M11.3333 1.3335H4.66667C2.66667 1.3335 2 2.52683 2 4.00016V14.6668H6V10.6268C6 10.2802 6.28 10.0002 6.62667 10.0002H9.38C9.72 10.0002 10.0067 10.2802 10.0067 10.6268V14.6668H14.0067V4.00016C14 2.52683 13.3333 1.3335 11.3333 1.3335ZM9.66667 6.16683H8.5V7.3335C8.5 7.60683 8.27333 7.8335 8 7.8335C7.72667 7.8335 7.5 7.60683 7.5 7.3335V6.16683H6.33333C6.06 6.16683 5.83333 5.94016 5.83333 5.66683C5.83333 5.3935 6.06 5.16683 6.33333 5.16683H7.5V4.00016C7.5 3.72683 7.72667 3.50016 8 3.50016C8.27333 3.50016 8.5 3.72683 8.5 4.00016V5.16683H9.66667C9.94 5.16683 10.1667 5.3935 10.1667 5.66683C10.1667 5.94016 9.94 6.16683 9.66667 6.16683Z" fill="#9CA3AF"/>
</svg>
