<svg width="16" height="16" viewBox="0 0 16 16" fill="none" xmlns="http://www.w3.org/2000/svg">
<path d="M5.92006 3.06649C5.38672 0.759819 1.91339 0.753152 1.38006 3.06649C1.06672 4.41982 1.92672 5.56649 2.67339 6.27982C3.22006 6.79315 4.08006 6.79315 4.62672 6.27982C5.37339 5.56649 6.22672 4.41982 5.92006 3.06649ZM3.67339 4.13315C3.30672 4.13315 3.00672 3.83315 3.00672 3.46649C3.00672 3.09982 3.30006 2.79982 3.66672 2.79982H3.67339C4.04672 2.79982 4.34006 3.09982 4.34006 3.46649C4.34006 3.83315 4.04672 4.13315 3.67339 4.13315Z" fill="#9CA3AF"/>
<path d="M14.6067 11.0665C14.0733 8.75982 10.5867 8.75315 10.0467 11.0665C9.73333 12.4198 10.5933 13.5665 11.3467 14.2798C11.8933 14.7932 12.76 14.7932 13.3067 14.2798C14.06 13.5665 14.92 12.4198 14.6067 11.0665ZM12.3533 12.1332C11.9867 12.1332 11.6867 11.8332 11.6867 11.4665C11.6867 11.0998 11.98 10.7998 12.3467 10.7998H12.3533C12.72 10.7998 13.02 11.0998 13.02 11.4665C13.02 11.8332 12.72 12.1332 12.3533 12.1332Z" fill="#9CA3AF"/>
<path d="M8 13.1668H6.21333C5.44 13.1668 4.76667 12.7002 4.5 11.9802C4.22667 11.2602 4.42667 10.4668 5.00667 9.9535L10.3333 5.2935C10.6533 5.0135 10.66 4.6335 10.5667 4.3735C10.4667 4.1135 10.2133 3.8335 9.78667 3.8335H8C7.72667 3.8335 7.5 3.60683 7.5 3.3335C7.5 3.06016 7.72667 2.8335 8 2.8335H9.78667C10.56 2.8335 11.2333 3.30016 11.5 4.02016C11.7733 4.74016 11.5733 5.5335 10.9933 6.04683L5.66667 10.7068C5.34667 10.9868 5.34 11.3668 5.43333 11.6268C5.53333 11.8868 5.78667 12.1668 6.21333 12.1668H8C8.27333 12.1668 8.5 12.3935 8.5 12.6668C8.5 12.9402 8.27333 13.1668 8 13.1668Z" fill="#9CA3AF"/>
</svg>
